<svg width="583" height="588" viewBox="0 0 583 588" fill="none" xmlns="http://www.w3.org/2000/svg">
<path d="M529.094 294C562.311 262.838 582.905 219.837 582.905 172.573C583 77.3834 499.768 0 397.556 0H0V51.3363V293.716V294.284V328.287C0 356.797 35.3995 370.247 54.2855 348.841C62.3524 339.748 69.9448 330.939 76.0187 323.646C108.571 280.171 150.804 220.879 204.994 184.981C263.361 146.432 327.706 137.528 377.911 185.265C377.911 185.265 378.195 185.455 378.29 185.55C425.933 230.729 429.824 303.945 386.927 349.03C344.03 394.115 233.181 436.075 164.755 409.554C221.508 384.36 243.715 331.508 243.715 331.508C217.5 348.841 193.84 354.402 168.5 359C116.955 368.353 90.8118 384.863 49.0658 414.953C18.3166 437.117 0 472.635 0 510.522V536.569V587.905H397.556C499.768 587.905 582.905 510.522 582.905 415.427C582.905 368.068 562.311 325.162 529.094 294Z" fill="#0DE9A7"/>
</svg>
